<svg width="56" height="42" viewBox="0 0 56 42" fill="currentColor" xmlns="http://www.w3.org/2000/svg">
<path d="M46.7374 3.54719C46.7221 3.5175 46.6967 3.49424 46.6658 3.48157C43.0917 1.84175 39.3201 0.672425 35.4452 0.00286817C35.41 -0.00367663 35.3736 0.00104486 35.3412 0.0163611C35.3089 0.0316774 35.2822 0.0568087 35.2649 0.0881809C34.7513 1.02033 34.2851 1.9778 33.868 2.95694C29.6911 2.32289 25.4424 2.32289 21.2655 2.95694C20.8457 1.97531 20.372 1.0176 19.8466 0.0881809C19.8286 0.0574905 19.8018 0.032938 19.7696 0.0177212C19.7374 0.00250442 19.7014 -0.00267138 19.6663 0.00286817C15.791 0.67102 12.0191 1.84043 8.44548 3.48166C8.41489 3.49463 8.38908 3.51677 8.3716 3.54504C1.22512 14.2174 -0.732578 24.6273 0.2278 34.9083C0.230502 34.9335 0.238243 34.9579 0.250564 34.9801C0.262885 35.0022 0.279533 35.0217 0.299519 35.0372C4.46085 38.1184 9.11536 40.4703 14.0644 41.9925C14.0993 42.0029 14.1365 42.0025 14.171 41.9911C14.2056 41.9798 14.2359 41.9582 14.2578 41.9291C15.3208 40.4828 16.2626 38.9513 17.0738 37.3502C17.0849 37.3282 17.0913 37.3041 17.0925 37.2795C17.0936 37.2549 17.0896 37.2303 17.0805 37.2074C17.0715 37.1845 17.0577 37.1637 17.0401 37.1465C17.0225 37.1293 17.0014 37.116 16.9783 37.1075C15.493 36.5393 14.0551 35.8542 12.6781 35.0588C12.6531 35.0441 12.6321 35.0235 12.6169 34.9987C12.6018 34.974 12.593 34.9459 12.5913 34.9169C12.5896 34.8879 12.595 34.859 12.6071 34.8326C12.6192 34.8063 12.6377 34.7833 12.6608 34.7657C12.9497 34.5493 13.2388 34.3241 13.5147 34.0967C13.5393 34.0765 13.5689 34.0635 13.6004 34.0593C13.6319 34.055 13.6639 34.0597 13.6929 34.0727C22.7144 38.1899 32.4814 38.1899 41.3961 34.0727C41.4251 34.0588 41.4575 34.0536 41.4894 34.0574C41.5214 34.0613 41.5515 34.0742 41.5764 34.0945C41.8524 34.3219 42.1415 34.5493 42.4326 34.7657C42.4558 34.7831 42.4744 34.8059 42.4867 34.8322C42.499 34.8585 42.5047 34.8874 42.5032 34.9163C42.5017 34.9453 42.4931 34.9735 42.4781 34.9983C42.4631 35.0232 42.4423 35.0439 42.4174 35.0588C41.0435 35.8609 39.6043 36.5455 38.1152 37.1054C38.0921 37.1142 38.0711 37.1278 38.0535 37.1452C38.036 37.1627 38.0224 37.1837 38.0136 37.2068C38.0047 37.2299 38.0008 37.2546 38.0022 37.2793C38.0035 37.304 38.0101 37.3282 38.0214 37.3502C38.8462 38.9424 39.7867 40.472 40.8353 41.9266C40.8565 41.9564 40.8867 41.9788 40.9214 41.9906C40.9561 42.0024 40.9936 42.0029 41.0287 41.9922C45.9866 40.4751 50.6492 38.1231 54.8158 35.0372C54.8361 35.0224 54.853 35.0035 54.8653 34.9816C54.8777 34.9598 54.8852 34.9355 54.8875 34.9105C56.0372 23.0246 52.9626 12.6999 46.7374 3.54719ZM18.4211 28.6483C15.7049 28.6483 13.4669 26.1557 13.4669 23.0946C13.4669 20.0335 15.6615 17.5407 18.4211 17.5407C21.2022 17.5407 23.4185 20.0551 23.3751 23.0944C23.3751 26.1557 21.1804 28.6483 18.4211 28.6483ZM36.738 28.6483C34.022 28.6483 31.784 26.1557 31.784 23.0946C31.784 20.0335 33.9786 17.5407 36.738 17.5407C39.5193 17.5407 41.7355 20.0551 41.6921 23.0944C41.6921 26.1557 39.5193 28.6483 36.738 28.6483Z"/>
</svg>
