<svg width="50" height="51" viewBox="0 0 50 51" fill="currentColor" xmlns="http://www.w3.org/2000/svg">
<path fill-rule="evenodd" clip-rule="evenodd" d="M24.998 0C11.1945 0 0 11.4766 0 25.6346C0 36.9585 7.16271 46.5671 17.0971 49.9583C18.348 50.1929 18.8038 49.4012 18.8038 48.7214C18.8038 48.1124 18.782 46.501 18.769 44.3624C11.815 45.9108 10.3478 40.9257 10.3478 40.9257C9.21056 37.9641 7.57143 37.1757 7.57143 37.1757C5.30153 35.5863 7.74328 35.6177 7.74328 35.6177C10.2526 35.7988 11.5725 38.2598 11.5725 38.2598C13.8025 42.1766 17.4245 41.0453 18.8487 40.389C19.0758 38.7336 19.722 37.6037 20.4357 36.9632C14.8845 36.3149 9.04781 34.1165 9.04781 24.2939C9.04781 21.4944 10.0224 19.2079 11.6216 17.4155C11.3636 16.7671 10.5058 14.1611 11.8674 10.6315C11.8674 10.6315 13.9654 9.94227 18.7415 13.258C20.7352 12.6898 22.8746 12.4066 25.0003 12.3956C27.1243 12.4045 29.2622 12.69 31.2589 13.258C36.032 9.94227 38.1269 10.6315 38.1269 10.6315C39.4913 14.1611 38.6334 16.7671 38.3771 17.4155C39.9794 19.2079 40.9463 21.4944 40.9463 24.2939C40.9463 34.1417 35.1004 36.3085 29.5323 36.9426C30.4286 37.7342 31.2282 39.2985 31.2282 41.6904C31.2282 45.1162 31.1978 47.8811 31.1978 48.7214C31.1978 49.4075 31.649 50.2054 32.9167 49.9552C42.8435 46.5577 50 36.9569 50 25.6346C50 11.4766 38.8055 0 24.9974 0" />
</svg>
